<svg xmlns="http://www.w3.org/2000/svg" width="35" height="35">
    <path d="M21 9l-8 16h1l8-15-1-1zm-5 4a3 3 0 10-7 0 3 3 0 007 0zm-3 3a2 2 0 110-5 2 2 0 010 5zm9 3a3 3 0 100 6 3 3 0 000-6zm0 5a2 2 0 110-4 2 2 0 010 4zm12-4l1-3-1-2-1-2V9l-3-2-1-1-1-1-2-3h-4l-2-1-2-1-3 1-2 1H9L7 5 6 6 5 7 2 9v4l-1 2-1 2 1 3 1 2v4l3 2 1 1 1 1 2 3h4l2 1 3 1 2-1 2-1h4l2-3 1-1 1-1 3-2v-4l1-2zm-2 1v5l-2 1-2 1-1 2-1 2h-5l-2 1-1 1-2-1-2-1H9l-1-2-1-2-2-1-2-1v-5l-1-2-1-2 1-1 1-2V9l2-1 2-1 1-2 1-2h5l2-1 2-1 1 1 2 1h5l1 2 1 2 2 1 2 1v5l1 2 1 1-1 2-1 2z"/>
</svg>
