<svg xmlns="http://www.w3.org/2000/svg" width="62" height="62" viewBox="0 0 465 465">
    <path d="M280 424l-12 2a19 19 0 007 37l14-3a19 19 0 10-9-36zm138-251a19 19 0 0024 12c9-3 15-14 11-24l-4-13a19 19 0 10-35 14l4 11zm-78 224l-10 6a19 19 0 0019 33l12-8a19 19 0 00-21-31zm125-172a19 19 0 00-37 2v12a19 19 0 1037 0v-14zm-50 123c-8-6-20-5-26 4l-8 9a19 19 0 0029 24l9-11c6-8 4-20-4-26zm27-68c-10-3-20 3-23 12l-4 12a19 19 0 0035 13l5-13c3-10-3-21-13-24zM198 426a204 204 0 01-59-21l-19-11a195 195 0 011-320h1c64-44 151-47 219-2l-15 21c-4 6-1 10 6 10l63-6c7-1 12-7 10-14l-17-61c-2-7-7-8-11-2l-15 21A231 231 0 00175 9h-1C123 22 78 52 47 95l-1 1a220 220 0 00-8 11l-1 1C11 149-2 196 0 244v1l1 14v1a231 231 0 0068 139v1a236 236 0 00122 63 19 19 0 107-37z"/>
    <path d="M221 83c-8 0-15 7-15 15v151l138 71a15 15 0 0020-6c4-8 1-17-6-21l-122-62V98c0-8-7-15-15-15z"/>
</svg>
