<svg xmlns="http://www.w3.org/2000/svg" width="53" height="63" viewBox="0 0 480 510"> <path d="M447 68h-43V25c0-14-11-25-25-25H65C51 0 40 11 40 25v394c0 14 11 25 25 25h43v43c0 14 11 25 25 25h209c14 0 33-8 43-17l69-65c10-9 18-28 18-41V93c0-14-11-25-25-25zM108 93v333H65c-4 0-6-3-6-7V25c0-4 2-6 6-6h314c4 0 7 2 7 6v43H133c-14 0-25 11-25 25zm333 324l-69 65-5 3v-56a15 15 0 0115-16h62l-3 4zm12-28v6h-71c-18 0-33 15-33 34v64H133c-4 0-7-2-7-6V93c0-4 3-7 7-7h314c4 0 6 3 6 7v296z"/> <path d="M379 154H200a9 9 0 100 19h179a9 9 0 100-19zM379 278H200a9 9 0 100 18h179a9 9 0 100-18zM299 339h-99a9 9 0 100 19h99a9 9 0 100-19zM379 216H200a9 9 0 100 18h179a9 9 0 100-18z"/> </svg>