<svg xmlns="http://www.w3.org/2000/svg" width="35" height="35" fill="none" viewBox="0 0 35 35">
  <path fill="#fff" d="M21 9l-8 16h1l8-15-1-1zm-5 4a3 3 0 10-7 0 3 3 0 007 0zm-3 3a2 2 0 110-5 2 2 0 010 5zm9 3a3 3 0 100 6 3 3 0 000-6zm0 5a2 2 0 110-4 2 2 0 010 4zm12-4l1-3-1-2-1-2v-1-3l-3-2-1-1-1-1-2-3h-3-1l-2-1-2-1-3 1-2 1h-3-1L7 5 6 6 5 7 2 9v4l-1 2-1 2 1 3 1 2v4l3 2 1 1 1 1 2 3h4l2 1 3 1 2-1 2-1h4l2-3 1-1 1-1 3-2v-3-1l1-2zm-2 1v5l-2 1-2 1-1 2-1 2h-4-1l-2 1-1 1-2-1-2-1h-3-1-1l-1-2-1-2-2-1-2-1v-2-3l-1-2-1-2 1-1 1-2v-3-2l2-1 2-1 1-2 1-2h5l2-1 2-1 1 1 2 1h5l1 2 1 2 2 1 2 1v5l1 2 1 1-1 2-1 2z"/>
</svg>
