<svg xmlns="http://www.w3.org/2000/svg" width="302" height="13" fill="none" viewBox="0 0 302 13">
  <path fill="#fff" d="M13 13L25 0H1l12 13z"/>
  <path fill="#fff" d="M36 13L47 0H24l12 13z"/>
  <path fill="#fff" d="M58 13L70 0H46l12 13z"/>
  <path fill="#fff" d="M82 13L94 0H69l13 13z"/>
  <path fill="#fff" d="M105 13l12-13H93l12 13z"/>
  <path fill="#fff" d="M128 13l12-13h-24l12 13zM151 13l11-13h-22l11 13zM174 13l12-13h-24l12 13z"/>
  <path fill="#fff" d="M197 13l12-13h-24l12 13z"/>
  <path fill="#fff" d="M220 13l13-13h-25l12 13z"/>
  <path fill="#fff" d="M244 13l12-13h-24l12 13z"/>
  <path fill="#fff" d="M266 13l12-13h-23l11 13z"/>
  <path fill="#fff" d="M289 13l12-13h-24l12 13z"/>
</svg>
